<?xml version="1.0" encoding="UTF-8" standalone="no"?>
<!-- Created with Inkscape (http://www.inkscape.org/) -->

<svg
   xmlns:dc="http://purl.org/dc/elements/1.1/"
   xmlns:cc="http://creativecommons.org/ns#"
   xmlns:rdf="http://www.w3.org/1999/02/22-rdf-syntax-ns#"
   xmlns:svg="http://www.w3.org/2000/svg"
   xmlns="http://www.w3.org/2000/svg"
   xmlns:xlink="http://www.w3.org/1999/xlink"
   xmlns:sodipodi="http://sodipodi.sourceforge.net/DTD/sodipodi-0.dtd"
   xmlns:inkscape="http://www.inkscape.org/namespaces/inkscape"
   width="512"
   height="512"
   id="svg2985"
   version="1.1"
   inkscape:version="0.91 r13725"
   sodipodi:docname="bsdata_icon.svg">
  <defs
     id="defs2987">
    <linearGradient
       inkscape:collect="always"
       xlink:href="#linearGradient4336-6"
       id="linearGradient3935"
       gradientUnits="userSpaceOnUse"
       gradientTransform="matrix(0.99894789,0,0,0.99894789,13.052441,-1062.5454)"
       x1="0"
       y1="796.09259"
       x2="512.53925"
       y2="796.09259" />
    <linearGradient
       id="linearGradient4336-6">
      <stop
         style="stop-color:#444444;stop-opacity:1;"
         offset="0"
         id="stop4338-1" />
      <stop
         id="stop4407-4"
         offset="0.2"
         style="stop-color:#222222;stop-opacity:1;" />
      <stop
         style="stop-color:#222222;stop-opacity:1;"
         offset="0.80000001"
         id="stop4409-2" />
      <stop
         style="stop-color:#000000;stop-opacity:1;"
         offset="1"
         id="stop4340-3" />
    </linearGradient>
    <linearGradient
       inkscape:collect="always"
       xlink:href="#linearGradient4336"
       id="linearGradient3661"
       gradientUnits="userSpaceOnUse"
       gradientTransform="matrix(0.99894789,0,0,0.99894789,534.52399,-1088.6483)"
       x1="0"
       y1="796.09259"
       x2="512.53925"
       y2="796.09259" />
    <linearGradient
       id="linearGradient4336">
      <stop
         style="stop-color:#444444;stop-opacity:1;"
         offset="0"
         id="stop4338" />
      <stop
         id="stop4407"
         offset="0.2"
         style="stop-color:#222222;stop-opacity:1;" />
      <stop
         style="stop-color:#222222;stop-opacity:1;"
         offset="0.80000001"
         id="stop4409" />
      <stop
         style="stop-color:#000000;stop-opacity:1;"
         offset="1"
         id="stop4340" />
    </linearGradient>
    <linearGradient
       inkscape:collect="always"
       xlink:href="#linearGradient4336-6-7"
       id="linearGradient4075"
       gradientUnits="userSpaceOnUse"
       gradientTransform="matrix(0.99894789,0,0,0.99894789,684.99114,-1942.3767)"
       x1="0"
       y1="796.09259"
       x2="512.53925"
       y2="796.09259" />
    <linearGradient
       id="linearGradient4336-6-7">
      <stop
         style="stop-color:#444444;stop-opacity:1;"
         offset="0"
         id="stop4338-1-4" />
      <stop
         id="stop4407-4-0"
         offset="0.2"
         style="stop-color:#222222;stop-opacity:1;" />
      <stop
         style="stop-color:#222222;stop-opacity:1;"
         offset="0.80000001"
         id="stop4409-2-9" />
      <stop
         style="stop-color:#000000;stop-opacity:1;"
         offset="1"
         id="stop4340-3-4" />
    </linearGradient>
  </defs>
  <sodipodi:namedview
     id="base"
     pagecolor="#ffffff"
     bordercolor="#666666"
     borderopacity="1.0"
     inkscape:pageopacity="0.0"
     inkscape:pageshadow="2"
     inkscape:zoom="1"
     inkscape:cx="274.27476"
     inkscape:cy="211.93741"
     inkscape:current-layer="layer1"
     showgrid="true"
     inkscape:document-units="px"
     inkscape:grid-bbox="true"
     inkscape:window-width="1680"
     inkscape:window-height="987"
     inkscape:window-x="-8"
     inkscape:window-y="-8"
     inkscape:window-maximized="1"
     showguides="false" />
  <metadata
     id="metadata2990">
    <rdf:RDF>
      <cc:Work
         rdf:about="">
        <dc:format>image/svg+xml</dc:format>
        <dc:type
           rdf:resource="http://purl.org/dc/dcmitype/StillImage" />
        <dc:title />
      </cc:Work>
    </rdf:RDF>
  </metadata>
  <g
     id="layer1"
     inkscape:label="Layer 1"
     inkscape:groupmode="layer"
     transform="translate(0,448)">
    <rect
       style="fill:#eceff1;fill-opacity:1;stroke:#e64a19;stroke-width:16;stroke-miterlimit:4;stroke-opacity:1;stroke-dasharray:none;display:inline"
       id="rect3036-2-8"
       width="496.00046"
       height="496.00046"
       x="-440.00049"
       y="-504.00046"
       rx="48.386585"
       ry="48.386585"
       transform="matrix(0,1,-1,0,0,0)"
       inkscape:export-filename="D:\My Documents\My Pictures\BattleScribe-Icon-48.png"
       inkscape:export-xdpi="8.437499"
       inkscape:export-ydpi="8.437499" />
    <path
       d="m 447.88273,-304.66745 c -0.0391,-0.22986 -0.0391,-0.45972 -0.11728,-0.68958 -0.0781,-0.19155 -0.23454,-0.34479 -0.35182,-0.49803 -0.11727,-0.19155 -0.23455,-0.38309 -0.39092,-0.53635 -0.15637,-0.15323 -0.35183,-0.26816 -0.55119,-0.38309 -0.15638,-0.11493 -0.31274,-0.22987 -0.5082,-0.30648 -0.19546,-0.11493 -0.4261,-0.11493 -0.66457,-0.15323 -0.19545,-0.0383 -0.39091,-0.11494 -0.62547,-0.11494 l -24.27608,-0.15324 -3.16644,-4.67383 c 0,-0.0383 -0.0391,-0.0383 -0.0391,-0.0766 -0.082,-0.0766 -0.15636,-0.15324 -0.23846,-0.22986 -0.11728,-0.15324 -0.27364,-0.26817 -0.43002,-0.3831 -0.0781,-0.0766 -0.15245,-0.19156 -0.26973,-0.26817 -0.082,-0.0383 -0.19546,-0.0765 -0.27364,-0.11493 -0.15636,-0.0766 -0.35183,-0.15324 -0.54729,-0.19155 -0.11727,-0.0383 -0.27364,-0.11493 -0.39482,-0.15325 -0.0391,0 -0.0391,0 -0.0781,-0.0383 -73.055,-11.22484 -134.15568,-7.08736 -155.65624,10.57357 -1.72004,1.41746 -3.12735,2.87324 -4.26102,4.40565 -1.17276,-1.60902 -2.61915,-3.17973 -4.41739,-4.63552 -16.80953,-13.82992 -66.02626,-23.79052 -153.631268,-10.3437 -0.03907,0.0383 -0.03907,0.0383 -0.07823,0.0383 -0.117277,0.0383 -0.234545,0.11494 -0.390918,0.15325 -0.195459,0.0383 -0.351822,0.11493 -0.54729,0.19155 -0.07813,0.0383 -0.195459,0.0765 -0.273641,0.11493 -0.07813,0.0766 -0.156363,0.19155 -0.27364,0.26817 -0.156373,0.11493 -0.312736,0.22986 -0.430014,0.3831 l -0.234554,0.22986 c 0,0.0383 -0.03907,0.0383 -0.03907,0.0766 l -3.166447,4.67383 -24.236994,0.15324 c -0.234545,0 -0.430003,0.0766 -0.625472,0.11494 -0.234545,0.0383 -0.469099,0.0383 -0.664558,0.15323 -0.195459,0.0383 -0.312736,0.19155 -0.469099,0.30648 -0.234555,0.11493 -0.430014,0.22986 -0.625473,0.38309 -0.117277,0.11494 -0.195458,0.30649 -0.312736,0.45973 -0.117277,0.19155 -0.27365,0.34479 -0.390917,0.57465 -0.07823,0.19155 -0.07823,0.42141 -0.117278,0.61296 -0.03916,0.22987 -0.117353,0.42142 -0.117353,0.65127 l 0,234.878775 c 0,0.229854 0.07813,0.383099 0.117277,0.574649 0.03907,0.229862 0.03907,0.421412 0.117277,0.612961 0.07823,0.233691 0.195459,0.386928 0.312737,0.574648 0.117267,0.153236 0.234544,0.344786 0.351822,0.498031 0.156372,0.153235 0.351831,0.268167 0.508195,0.386927 0.195458,0.111103 0.351831,0.264338 0.54729,0.344794 0.195459,0.07667 0.430013,0.111094 0.625472,0.153236 0.195459,0.03829 0.351822,0.153245 0.586377,0.153245 40.381965,2.107053 75.603785,-2.988182 103.906345,-7.091183 25.01884,-3.639458 44.79934,-6.512707 51.28861,-0.996061 1.09457,0.919434 2.54097,2.605073 2.54097,6.742561 0,1.800572 1.48549,3.260186 3.36191,3.260186 l 55.47144,0 c 1.83732,0 3.32673,-1.459614 3.32673,-3.260186 0,-4.095345 1.44248,-5.823127 2.53706,-6.742561 6.52836,-5.516646 26.30886,-2.643397 51.3277,0.996061 28.30256,4.099174 63.52438,9.194398 103.90634,7.091183 0.23846,0 0.39484,-0.114931 0.58638,-0.153245 0.19546,-0.04211 0.42611,-0.0805 0.62547,-0.153236 0.19546,-0.0805 0.39092,-0.233691 0.54729,-0.386936 0.15637,-0.111094 0.35182,-0.19155 0.4691,-0.344785 0.19546,-0.153245 0.27365,-0.344795 0.39092,-0.536345 0.11728,-0.191549 0.23846,-0.344785 0.31274,-0.498029 0.0821,-0.233692 0.11727,-0.459717 0.11727,-0.693408 0.0391,-0.153246 0.11728,-0.344795 0.11728,-0.536345 l 0,-234.874937 c 0,-0.19155 -0.0781,-0.3831 -0.11728,-0.57465 z m -30.17897,5.09524 7.77539,11.493 0,187.02955 -9.14751,-12.87217 1.37212,-185.65038 z m 4.96468,206.06963 c -28.25956,1.647326 -49.02127,-1.455787 -67.39448,-4.217933 -29.90532,-4.555067 -53.55594,-8.117897 -90.77146,13.14416 l -4.76921,0 c 1.17275,-5.708187 5.16013,-11.573454 11.41484,-16.549927 13.99491,-11.14821 50.78041,-27.00857 139.87092,-8.81131 l 11.64939,16.43501 z m -164.30337,-195.6493 c 0,-0.0383 0,-0.0383 0,-0.0766 0.0821,-3.0265 1.84124,-5.97637 5.24223,-8.773 16.25833,-13.3702 68.09814,-21.377 147.45475,-9.5392 l -1.37213,190.63073 c -89.82934,-17.85247 -127.98306,-1.07268 -142.76372,10.68849 -3.01007,2.37522 -5.55105,4.98031 -7.62292,7.700323 L 258.36507,-289.0752 c 0,-0.0383 0,-0.0383 0,-0.0766 z m -12.04032,-9.11779 c 3.47919,2.87325 5.27742,5.89974 5.3556,9.04116 l 0,0.19156 0.89911,190.324203 c -2.07187,-2.639563 -4.53465,-5.171853 -7.46656,-7.508763 -14.77674,-11.76118 -52.93046,-28.54097 -142.8028,-10.6885 l -1.40731,-190.63069 c 83.65673,-12.48907 130.60613,-2.87325 145.42196,9.27103 z m -145.34378,188.33208 c 89.09051,-18.23557 125.9151,-2.3369 139.91001,8.81131 6.2938,4.9803 10.28118,10.84174 11.41484,16.549927 l -4.8474,0 c -37.17642,-21.262057 -60.82704,-17.699227 -90.73236,-13.14416 -18.37321,2.762146 -39.13102,5.861426 -67.394484,4.217933 l 11.649394,-16.43501 z m -6.723808,-189.63462 1.407308,185.65038 -9.147509,12.87217 0,-187.02955 7.740201,-11.493 z"
       id="path3045"
       style="fill:#263238;fill-opacity:1;stroke:none"
       inkscape:connector-curvature="0" />
  </g>
</svg>
