<?xml version="1.0" encoding="UTF-8" standalone="no"?>
<!-- Created with Inkscape (http://www.inkscape.org/) -->

<svg
   xmlns:dc="http://purl.org/dc/elements/1.1/"
   xmlns:cc="http://creativecommons.org/ns#"
   xmlns:rdf="http://www.w3.org/1999/02/22-rdf-syntax-ns#"
   xmlns:svg="http://www.w3.org/2000/svg"
   xmlns="http://www.w3.org/2000/svg"
   xmlns:xlink="http://www.w3.org/1999/xlink"
   xmlns:sodipodi="http://sodipodi.sourceforge.net/DTD/sodipodi-0.dtd"
   xmlns:inkscape="http://www.inkscape.org/namespaces/inkscape"
   width="512"
   height="512"
   id="svg2985"
   version="1.1"
   inkscape:version="0.48.4 r9939"
   sodipodi:docname="bsdata_icon_border.svg">
  <defs
     id="defs2987">
    <linearGradient
       inkscape:collect="always"
       xlink:href="#linearGradient4336-6"
       id="linearGradient3935"
       gradientUnits="userSpaceOnUse"
       gradientTransform="matrix(0.99894789,0,0,0.99894789,13.052441,-1062.5454)"
       x1="0"
       y1="796.09259"
       x2="512.53925"
       y2="796.09259" />
    <linearGradient
       id="linearGradient4336-6">
      <stop
         style="stop-color:#444444;stop-opacity:1;"
         offset="0"
         id="stop4338-1" />
      <stop
         id="stop4407-4"
         offset="0.2"
         style="stop-color:#222222;stop-opacity:1;" />
      <stop
         style="stop-color:#222222;stop-opacity:1;"
         offset="0.80000001"
         id="stop4409-2" />
      <stop
         style="stop-color:#000000;stop-opacity:1;"
         offset="1"
         id="stop4340-3" />
    </linearGradient>
    <linearGradient
       inkscape:collect="always"
       xlink:href="#linearGradient4336"
       id="linearGradient3661"
       gradientUnits="userSpaceOnUse"
       gradientTransform="matrix(0.99894789,0,0,0.99894789,534.52399,-1088.6483)"
       x1="0"
       y1="796.09259"
       x2="512.53925"
       y2="796.09259" />
    <linearGradient
       id="linearGradient4336">
      <stop
         style="stop-color:#444444;stop-opacity:1;"
         offset="0"
         id="stop4338" />
      <stop
         id="stop4407"
         offset="0.2"
         style="stop-color:#222222;stop-opacity:1;" />
      <stop
         style="stop-color:#222222;stop-opacity:1;"
         offset="0.80000001"
         id="stop4409" />
      <stop
         style="stop-color:#000000;stop-opacity:1;"
         offset="1"
         id="stop4340" />
    </linearGradient>
    <linearGradient
       inkscape:collect="always"
       xlink:href="#linearGradient4336-6-7"
       id="linearGradient4075"
       gradientUnits="userSpaceOnUse"
       gradientTransform="matrix(0.99894789,0,0,0.99894789,684.99114,-1942.3767)"
       x1="0"
       y1="796.09259"
       x2="512.53925"
       y2="796.09259" />
    <linearGradient
       id="linearGradient4336-6-7">
      <stop
         style="stop-color:#444444;stop-opacity:1;"
         offset="0"
         id="stop4338-1-4" />
      <stop
         id="stop4407-4-0"
         offset="0.2"
         style="stop-color:#222222;stop-opacity:1;" />
      <stop
         style="stop-color:#222222;stop-opacity:1;"
         offset="0.80000001"
         id="stop4409-2-9" />
      <stop
         style="stop-color:#000000;stop-opacity:1;"
         offset="1"
         id="stop4340-3-4" />
    </linearGradient>
    <linearGradient
       inkscape:collect="always"
       xlink:href="#linearGradient4336-6-7"
       id="linearGradient3026"
       gradientUnits="userSpaceOnUse"
       gradientTransform="matrix(0.96773169,0,0,0.96773169,-440.0005,-1026.4041)"
       x1="0"
       y1="796.09259"
       x2="512.53925"
       y2="796.09259" />
  </defs>
  <sodipodi:namedview
     id="base"
     pagecolor="#ffffff"
     bordercolor="#666666"
     borderopacity="1.0"
     inkscape:pageopacity="0.0"
     inkscape:pageshadow="2"
     inkscape:zoom="1"
     inkscape:cx="251.34338"
     inkscape:cy="213.93741"
     inkscape:current-layer="layer1"
     showgrid="true"
     inkscape:document-units="px"
     inkscape:grid-bbox="true"
     inkscape:window-width="1680"
     inkscape:window-height="987"
     inkscape:window-x="-8"
     inkscape:window-y="-8"
     inkscape:window-maximized="1" />
  <metadata
     id="metadata2990">
    <rdf:RDF>
      <cc:Work
         rdf:about="">
        <dc:format>image/svg+xml</dc:format>
        <dc:type
           rdf:resource="http://purl.org/dc/dcmitype/StillImage" />
        <dc:title />
      </cc:Work>
    </rdf:RDF>
  </metadata>
  <g
     id="layer1"
     inkscape:label="Layer 1"
     inkscape:groupmode="layer"
     transform="translate(0,448)">
    <rect
       style="fill:url(#linearGradient3026);fill-opacity:1;stroke:#808080;stroke-width:16;stroke-miterlimit:4;stroke-opacity:1;stroke-dasharray:none;display:inline"
       id="rect3036-2-8"
       width="496.00046"
       height="496.00046"
       x="-440.00049"
       y="-504.00046"
       rx="48.386585"
       ry="48.386585"
       transform="matrix(0,1,-1,0,0,0)"
       inkscape:export-filename="D:\My Documents\My Pictures\BattleScribe-Icon-48.png"
       inkscape:export-xdpi="8.437499"
       inkscape:export-ydpi="8.437499" />
    <g
       id="g4416">
      <path
         inkscape:connector-curvature="0"
         style="fill:#808080;fill-opacity:1"
         id="path3045"
         d="m 457.37694,-312.65542 c -0.041,-0.24616 -0.041,-0.49231 -0.12308,-0.73847 -0.082,-0.20513 -0.24615,-0.36924 -0.36923,-0.53334 -0.12308,-0.20513 -0.24616,-0.41026 -0.41026,-0.57437 -0.16411,-0.1641 -0.36924,-0.28718 -0.57847,-0.41026 -0.16411,-0.12308 -0.32821,-0.24616 -0.53334,-0.32821 -0.20513,-0.12308 -0.44719,-0.12308 -0.69745,-0.1641 -0.20513,-0.041 -0.41026,-0.12308 -0.65642,-0.12308 l -25.47724,-0.16411 -3.32312,-5.00519 c 0,-0.041 -0.041,-0.041 -0.041,-0.0821 -0.0861,-0.0821 -0.1641,-0.1641 -0.25026,-0.24616 -0.12308,-0.1641 -0.28718,-0.28718 -0.45129,-0.41026 -0.082,-0.0821 -0.16,-0.20513 -0.28308,-0.28718 -0.0861,-0.041 -0.20513,-0.082 -0.28718,-0.12308 -0.1641,-0.0821 -0.36924,-0.1641 -0.57437,-0.20513 -0.12307,-0.041 -0.28718,-0.12308 -0.41436,-0.16411 -0.041,0 -0.041,0 -0.082,-0.041 -76.6697,-12.02067 -140.79359,-7.58984 -163.35798,11.32322 -1.80515,1.51797 -3.28209,3.07696 -4.47185,4.71801 -1.23079,-1.7231 -2.74875,-3.40517 -4.63596,-4.96417 -17.64125,-14.81044 -69.29319,-25.47724 -161.23282,-11.07706 -0.041,0.041 -0.041,0.041 -0.0821,0.041 -0.12308,0.041 -0.24615,0.12308 -0.41026,0.16411 -0.20513,0.041 -0.36923,0.12308 -0.57437,0.20513 -0.082,0.041 -0.20513,0.082 -0.28718,0.12308 -0.082,0.0821 -0.1641,0.20513 -0.28718,0.28718 -0.16411,0.12308 -0.32821,0.24616 -0.45129,0.41026 l -0.24616,0.24616 c 0,0.041 -0.041,0.041 -0.041,0.0821 l -3.32312,5.00519 -25.43622,0.16411 c -0.24615,0 -0.45128,0.0821 -0.65642,0.12308 -0.24615,0.041 -0.49231,0.041 -0.69744,0.1641 -0.20513,0.041 -0.32821,0.20513 -0.49231,0.32821 -0.24616,0.12308 -0.45129,0.24616 -0.65642,0.41026 -0.12308,0.12308 -0.20513,0.32821 -0.32821,0.49232 -0.12308,0.20513 -0.28719,0.36923 -0.41026,0.61539 -0.0821,0.20513 -0.0821,0.45129 -0.12308,0.65642 -0.0411,0.24616 -0.12316,0.45129 -0.12316,0.69744 v 251.531407 c 0,0.24615 0.082,0.41026 0.12308,0.61539 0.041,0.24616 0.041,0.45129 0.12308,0.65642 0.0821,0.25026 0.20513,0.41436 0.32821,0.61539 0.12307,0.1641 0.24615,0.36923 0.36923,0.53334 0.16411,0.1641 0.36924,0.28718 0.53334,0.41436 0.20513,0.11898 0.36924,0.28308 0.57437,0.36924 0.20513,0.0821 0.45129,0.11897 0.65642,0.1641 0.20513,0.041 0.36923,0.16411 0.61539,0.16411 42.38003,2.25644 79.3446,-3.20004 109.04754,-7.59394 26.25675,-3.89749 47.01598,-6.97445 53.82633,-1.06668 1.14873,0.98462 2.6667,2.78977 2.6667,7.2206 0,1.92823 1.55899,3.49133 3.52825,3.49133 h 58.21612 c 1.92823,0 3.49133,-1.5631 3.49133,-3.49133 0,-4.3857 1.51386,-6.23598 2.6626,-7.2206 6.85137,-5.90777 27.6106,-2.83081 53.86735,1.06668 29.70294,4.3898 66.66751,9.84627 109.04754,7.59394 0.25026,0 0.41437,-0.12308 0.61539,-0.16411 0.20513,-0.0451 0.44719,-0.0862 0.65642,-0.1641 0.20513,-0.0862 0.41026,-0.25026 0.57437,-0.41437 0.1641,-0.11897 0.36923,-0.20513 0.49231,-0.36923 0.20513,-0.16411 0.28719,-0.36924 0.41026,-0.57437 0.12308,-0.20513 0.25026,-0.36923 0.32821,-0.53334 0.0862,-0.25026 0.12308,-0.49231 0.12308,-0.74257 0.041,-0.16411 0.12308,-0.36924 0.12308,-0.57437 V -312.04003 c 0,-0.20513 -0.082,-0.41026 -0.12308,-0.61539 z m -31.6722,5.45648 8.16011,12.30785 v 200.289719 l -9.60012,-13.784789 1.44001,-198.81278 z m 5.21033,220.679729 c -29.65782,1.76412 -51.44681,-1.559 -70.72911,-4.51698 -31.38501,-4.87801 -56.20584,-8.69345 -95.26275,14.076068 h -5.00519 c 1.23078,-6.11289 5.41545,-12.393998 11.97964,-17.723298 14.68736,-11.938609 53.29298,-28.923439 146.79161,-9.436019 l 12.2258,17.600229 z M 258.4821,-296.03982 c 0,-0.041 0,-0.041 0,-0.0821 0.0862,-3.24106 1.93234,-6.40008 5.50161,-9.39499 17.06278,-14.31813 71.46758,-22.8926 154.75069,-10.21551 l -1.44002,204.14622 c -94.27402,-19.11819 -134.31556,-1.14873 -149.82755,11.4463 -3.15901,2.543619 -5.82571,5.333399 -8.0001,8.246259 L 258.4821,-295.95777 c 0,-0.041 0,-0.041 0,-0.0821 z m -12.63606,-9.76423 c 3.65133,3.07696 5.53854,6.31803 5.62059,9.68217 v 0.20514 l 0.9436,203.817969 c -2.17439,-2.8267 -4.75903,-5.53853 -7.836,-8.041129 -15.50789,-12.59503 -55.54942,-30.56449 -149.86857,-11.4463 l -1.47694,-204.14618 c 87.79599,-13.37453 137.06841,-3.07696 152.61732,9.92833 z M 93.31077,-104.11944 c 93.49863,-19.52845 132.14527,-2.50259 146.83264,9.436019 6.60521,5.3334 10.78988,11.610408 11.97964,17.723298 h -5.08725 c -39.01588,-22.769518 -63.83671,-18.954078 -95.22172,-14.076068 -19.2823,2.95798 -41.06719,6.277 -70.72911,4.51698 l 12.2258,-17.600229 z m -7.0565,-203.0795 1.47694,198.81278 -9.60012,13.784789 V -294.89109 l 8.12318,-12.30785 z" />
      <path
         transform="translate(0,-448)"
         inkscape:connector-curvature="0"
         id="path4404"
         d="m 247.35909,351.06259 c -12.52452,-12.22897 -34.31815,-19.78537 -63.4939,-22.01495 -20.8463,-1.59304 -52.6851,0.76378 -79.88395,5.9133 l -9.513399,1.80116 -0.108773,-19.09975 c -0.05982,-10.50487 -0.40871,-56.44976 -0.7753,-102.09976 -0.36659,-45.65 -0.621127,-83.10901 -0.565637,-83.24225 0.256721,-0.61644 31.566819,-4.30293 45.449709,-5.35131 18.62946,-1.40682 55.63014,-0.62788 68.5,1.44206 21.0883,3.39177 35.47615,9.08072 41.71366,16.49358 l 2.54786,3.02795 0.68306,45.31499 c 0.37569,24.92324 0.54185,71.63998 0.36925,103.81498 l -0.31383,58.5 -4.60875,-4.5 z"
         style="fill:#e6e6e6;fill-opacity:1" />
      <path
         transform="translate(0,-448)"
         inkscape:connector-curvature="0"
         id="path4406"
         d="m 77.467841,253.38231 0,-99.68028 4.25,-6.5279 4.25,-6.52791 0.618927,32.95819 c 0.34041,18.127 0.731135,62.99019 0.868279,99.69597 l 0.249351,66.73779 -4.368278,6.48054 c -2.402553,3.56429 -4.705779,6.49479 -5.118279,6.51221 -0.4125,0.0174 -0.75,-44.82446 -0.75,-99.64861 z"
         style="fill:#e6e6e6;fill-opacity:1" />
      <path
         transform="translate(0,-448)"
         inkscape:connector-curvature="0"
         id="path4408"
         d="m 240.46784,367.96325 c -16.30843,-9.08266 -30.17655,-12.88718 -49.5,-13.57961 -13.2461,-0.47466 -17.51392,-0.17694 -36.5,2.54626 -11.825,1.69607 -26.45,3.5444 -32.5,4.10739 -13.20041,1.2284 -40.499999,1.36096 -40.499999,0.19667 0,-0.45575 2.655806,-4.63503 5.90179,-9.28728 l 5.901788,-8.45865 8.848211,-1.6747 c 27.11266,-5.1316 37.18643,-6.09838 64.34821,-6.1755 21.98866,-0.0624 27.94703,0.23308 35,1.73586 16.82288,3.58447 29.01584,8.53421 38.31513,15.55406 4.72913,3.56993 10.74224,11.45066 12.12036,15.88484 0.62895,2.02369 0.36561,2.24818 -2.6181,2.23189 -1.82457,-0.01 -5.79239,-1.39652 -8.81739,-3.08123 l 0,0 z"
         style="fill:#e6e6e6;fill-opacity:1" />
      <path
         transform="translate(0,-448)"
         inkscape:connector-curvature="0"
         id="path4410"
         d="m 259.1265,327.2991 c -0.36226,-15.70904 -0.65866,-62.36115 -0.65866,-103.67135 l 0,-75.10947 3.06931,-3.7236 c 5.69761,-6.91219 21.3974,-12.87501 42.93069,-16.30519 13.62235,-2.16998 48.28598,-2.94415 68.01832,-1.51908 14.48587,1.04616 46.11084,4.68803 46.45731,5.34993 0.0697,0.13324 -0.1901,39.61725 -0.57743,87.74225 -0.38733,48.125 -0.74788,94.06989 -0.80122,102.09976 l -0.097,14.59975 -9.5134,-1.80116 c -27.19884,-5.14952 -59.03765,-7.50634 -79.88394,-5.9133 -29.36409,2.24397 -50.87858,9.74834 -63.54304,22.16415 l -4.74231,4.6492 -0.65865,-28.56189 2e-5,0 z"
         style="fill:#e6e6e6;fill-opacity:1" />
      <path
         transform="translate(0,-448)"
         inkscape:connector-curvature="0"
         id="path4412"
         d="m 260.47042,368.55581 c 4.47292,-11.76467 17.00071,-21.53403 34.99742,-27.29154 15.29387,-4.89281 22.1122,-5.69384 48.5,-5.69786 26.06696,-0.004 36.79949,0.98504 62.92684,5.79877 l 11.92684,2.19741 5.82316,8.40885 c 3.20274,4.62486 5.82316,8.85291 5.82316,9.39567 0,0.63732 -7.70315,0.77343 -21.75,0.38431 -17.07226,-0.47294 -27.12671,-1.36319 -46.75,-4.13939 -26.43101,-3.73933 -42.25457,-4.46107 -54.5,-2.48587 -9.06679,1.46249 -22.91407,6.25508 -33.2244,11.49907 -4.79842,2.44055 -10.07478,4.43736 -11.72525,4.43736 -2.78987,0 -2.93384,-0.17624 -2.04777,-2.50678 z"
         style="fill:#e6e6e6;fill-opacity:1" />
      <path
         transform="translate(0,-448)"
         inkscape:connector-curvature="0"
         id="path4414"
         d="m 428.71784,346.55148 -4.25,-6.46949 0.14156,-65.7597 c 0.0779,-36.16783 0.41535,-81.04073 0.75,-99.71755 l 0.60844,-33.95785 4.25,6.52757 4.25,6.52757 0,99.68028 c 0,54.82415 -0.3375,99.67092 -0.75,99.65947 -0.4125,-0.0114 -2.6625,-2.93208 -5,-6.4903 l 0,0 z"
         style="fill:#e6e6e6;fill-opacity:1" />
    </g>
  </g>
</svg>
